<?xml version="1.0" encoding="UTF-8" standalone="no"?>
<svg
   width="135.45mm"
   height="135.45mm"
   viewBox="0 0 512 512"
   version="1.1"
   id="svg3"
   sodipodi:docname="cloche COZE.svg"
   inkscape:version="1.1.2 (0a00cf5339, 2022-02-04, custom)"
   xmlns:inkscape="http://www.inkscape.org/namespaces/inkscape"
   xmlns:sodipodi="http://sodipodi.sourceforge.net/DTD/sodipodi-0.dtd"
   xmlns="http://www.w3.org/2000/svg"
   xmlns:svg="http://www.w3.org/2000/svg">
  <defs
     id="defs7" />
  <sodipodi:namedview
     id="namedview5"
     pagecolor="#ffffff"
     bordercolor="#666666"
     borderopacity="1.0"
     inkscape:pageshadow="2"
     inkscape:pageopacity="0.0"
     inkscape:pagecheckerboard="0"
     inkscape:document-units="mm"
     showgrid="false"
     inkscape:zoom="0.89918587"
     inkscape:cx="235.21277"
     inkscape:cy="302.49586"
     inkscape:window-width="1920"
     inkscape:window-height="1017"
     inkscape:window-x="1592"
     inkscape:window-y="-437"
     inkscape:window-maximized="1"
     inkscape:current-layer="svg3" />
  <path
     style="fill:#549956;stroke-width:0.786386;fill-opacity:1"
     d="m 246.72822,510.75688 c -18.41867,-2.58783 -35.93801,-11.86948 -46.86117,-24.82676 -8.15393,-9.67238 -14.58544,-22.73343 -16.39733,-33.29956 l -0.95522,-5.57037 -55.8699,-0.009 c -44.095475,-0.007 -56.698543,-0.23068 -59.801828,-1.05964 -16.258321,-4.34297 -26.172621,-19.20153 -23.281536,-34.89201 1.602129,-8.69506 4.681016,-13.35259 16.986863,-25.69656 6.076887,-6.09572 13.081397,-13.80698 15.565579,-17.13615 12.513624,-16.77013 21.476106,-35.01305 26.032832,-52.98923 4.0861,-16.11956 4.4082,-20.77558 4.41546,-63.8253 0.007,-42.81402 0.52243,-52.64476 3.54038,-67.55263 10.27831,-50.77224 44.68022,-91.305089 93.30046,-109.927984 4.17603,-1.599539 8.11679,-3.503951 8.75722,-4.232028 0.9238,-1.050234 1.24152,-4.817451 1.53754,-18.231064 0.32687,-14.811673 0.58964,-17.537128 2.12005,-21.988781 3.30021,-9.599658 8.6211,-16.622972 16.6612,-21.9919373 6.98713,-4.6658331 13.21159,-6.3479574 23.48968,-6.3479574 10.22103,0 16.51203,1.6840162 23.31627,6.2414442 5.83893,3.9108605 8.88743,7.1022075 12.44202,13.0250015 5.14179,8.567445 6.02394,12.865419 6.50263,31.68225 0.48708,19.146614 0.20896,18.442418 8.30884,21.037754 6.61072,2.118183 23.96803,10.827247 31.60753,15.859147 29.89651,19.691875 51.71712,49.909025 61.37257,84.988665 5.02215,18.2462 5.21704,20.74639 5.86745,75.27038 0.62496,52.39031 0.51788,50.86126 4.70807,67.23597 4.52343,17.67696 14.88326,38.08795 27.34105,53.86741 2.39026,3.02758 9.02197,10.10505 14.73713,15.72771 11.38237,11.19814 14.53676,16.08638 16.17967,25.073 2.91499,15.94495 -7.93058,31.57955 -24.27919,35.00001 -2.82222,0.59046 -22.01599,0.87187 -59.4674,0.87187 h -55.30017 l -0.51104,3.85243 c -1.13026,8.52034 -7.01359,22.15805 -13.45063,31.17892 -6.47022,9.06736 -17.11492,17.71125 -27.74838,22.53268 -11.41942,5.17782 -28.94456,7.80773 -40.8667,6.13266 z m 23.73512,-21.7016 c 15.30605,-3.92919 29.30092,-16.39191 35.07555,-31.23549 1.31541,-3.38123 2.59919,-7.18537 2.85285,-8.45364 l 0.46119,-2.30596 H 255.9685 203.08407 l 0.47716,2.38581 c 0.26244,1.31221 1.41547,4.76247 2.5623,7.66726 10.01451,25.36585 37.26204,38.89311 64.33981,31.94202 z m 172.51565,-64.03404 c 2.79427,-1.70363 4.87826,-5.65419 4.85031,-9.19462 -0.0323,-4.09459 -2.76516,-8.38845 -8.65334,-13.5962 -7.50193,-6.635 -19.30222,-20.445 -25.52903,-29.87686 -12.54808,-19.00684 -21.27889,-39.50182 -26.12984,-61.33807 -1.98975,-8.9567 -2.01475,-9.50728 -2.60759,-57.40615 -0.69959,-56.52322 -1.20601,-62.21336 -7.20873,-80.99771 -13.59817,-42.55279 -50.73131,-75.64374 -95.33641,-84.958399 -28.27067,-5.903624 -58.97471,-1.865408 -84.28794,11.085607 -13.45963,6.886352 -22.37526,13.336282 -32.54226,23.542402 -17.75857,17.8269 -28.49128,36.92246 -34.69723,61.73298 -2.42119,9.6796 -3.1235,22.93018 -3.81374,71.95428 -0.68235,48.46308 -0.74092,49.19257 -5.24174,65.27 -4.66021,16.64683 -13.24871,35.7115 -22.318448,49.54229 -6.42899,9.80381 -18.222975,23.75288 -26.08652,30.85326 -6.636983,5.99286 -9.286059,9.97662 -9.286059,13.96464 0,3.77597 2.020141,7.6865 4.867588,9.42255 2.591343,1.57989 3.434145,1.58704 187.010489,1.58704 183.57634,0 184.41914,-0.007 187.01049,-1.58704 z M 277.83128,51.511586 c -0.37969,-15.282174 -1.35967,-19.048634 -6.27895,-24.132416 -10.06396,-10.400489 -29.5076,-6.965321 -35.28034,6.233088 -1.59994,3.65797 -1.84857,5.720031 -2.15826,17.899328 l -0.35001,13.76508 h 22.20478 22.20477 z"
     id="path120"
     transform="scale(1.0001231)" />
</svg>
