<?xml version="1.0" encoding="UTF-8" standalone="no"?>
<svg
   width="73"
   height="78"
   viewBox="0 0 73 78"
   fill="none"
   version="1.1"
   id="svg10"
   sodipodi:docname="coze.svg"
   inkscape:version="1.1.2 (b8e25be833, 2022-02-05)"
   xmlns:inkscape="http://www.inkscape.org/namespaces/inkscape"
   xmlns:sodipodi="http://sodipodi.sourceforge.net/DTD/sodipodi-0.dtd"
   xmlns="http://www.w3.org/2000/svg"
   xmlns:svg="http://www.w3.org/2000/svg">
  <defs
     id="defs14" />
  <sodipodi:namedview
     id="namedview12"
     pagecolor="#ffffff"
     bordercolor="#666666"
     borderopacity="1.0"
     inkscape:pageshadow="2"
     inkscape:pageopacity="0.0"
     inkscape:pagecheckerboard="0"
     showgrid="false"
     inkscape:zoom="7.7781746"
     inkscape:cx="21.277486"
     inkscape:cy="32.334065"
     inkscape:window-width="1920"
     inkscape:window-height="1051"
     inkscape:window-x="-9"
     inkscape:window-y="-9"
     inkscape:window-maximized="1"
     inkscape:current-layer="svg10" />
  <path
     d="M1.46158 77.488C1.07813 77.263 0.798815 76.9775 0.5645 76.5711C0.246328 76.0192 0.224576 75.9065 0.229363 74.8338C0.234998 73.5714 -0.022968 74.4973 3.72029 62.3041C4.28931 60.4507 4.68195 58.9706 4.68974 58.6498C4.70057 58.2036 4.55451 57.7902 3.84313 56.2535C2.75085 53.8939 2.19692 52.3903 1.57865 50.1068C0.449718 45.9372 0.224243 44.0383 0.224243 38.7005C0.224243 34.8692 0.246069 34.3786 0.476882 33.022C1.29196 28.2315 2.46213 24.4715 4.30224 20.7303C6.10067 17.0738 8.89868 13.1475 11.5691 10.533C17.4327 4.79221 24.1221 1.46234 32.0074 0.359143C33.744 0.116195 39.3247 0.115682 41.031 0.358315C50.9915 1.77466 59.7438 7.18565 65.6119 15.5551C69.0093 20.4007 71.1713 25.6206 72.2592 31.6045C72.8113 34.6407 72.8619 35.3906 72.8008 39.618C72.7368 44.0503 72.5984 45.2761 71.7669 48.7783C69.5885 57.9537 64.1905 66.1097 56.8525 71.3134C53.0674 73.9975 49.6573 75.6101 45.2889 76.7816C41.8616 77.7006 41.3149 77.7609 36.4439 77.7559C32.13 77.7515 32.0493 77.747 30.5007 77.4204C28.4981 76.9981 26.5708 76.4784 25.0061 75.9388C23.6918 75.4855 20.5542 74.0743 19.6236 73.518C18.4465 72.8143 18.4712 72.8139 16.1804 73.5686C13.729 74.3762 7.7396 76.4029 5.36321 77.2289C3.2522 77.9627 2.37049 78.0212 1.46158 77.488ZM40.7273 71.6453C47.7683 70.6654 54.5242 66.8652 59.3573 61.1659C62.8848 57.0062 65.4724 51.6935 66.5934 46.3088C67.102 43.8658 67.225 42.3858 67.225 38.7093C67.225 35.8143 67.1905 35.0979 66.9898 33.833C66.2182 28.9684 64.6124 24.6073 62.1205 20.6083C59.8852 17.0211 56.7219 13.7126 53.1217 11.1965C43.9595 4.7933 31.3027 4.34228 21.6709 10.0757C17.0349 12.8354 13.6538 16.2109 10.5842 21.1443C8.21126 24.9581 6.85326 28.7196 6.04121 33.7281C5.79782 35.2293 5.69507 41.3524 5.88379 43.1088C6.27049 46.7077 7.58227 51.1944 9.16638 54.3364C10.2977 56.5803 10.5887 57.224 10.6629 57.6466C10.7655 58.2312 10.5706 58.993 8.7678 65.0523C7.92596 67.8818 7.25198 70.2126 7.27007 70.2319C7.28816 70.2513 9.46958 69.5317 12.1177 68.6329C18.0174 66.6304 18.3727 66.5254 18.9738 66.6072C19.266 66.6469 20.3107 67.1486 21.7211 67.9264C24.3508 69.3767 25.6479 69.9496 27.8202 70.6202C29.177 71.0391 31.5952 71.6057 32.6313 71.7475C32.8163 71.7729 34.4159 71.8017 36.1859 71.8115C38.5181 71.8245 39.7683 71.7788 40.7273 71.6453Z"
     fill="#549956"
     id="path2" />
  <path
     d="M35.0253 63.9138C32.2365 63.5883 29.5979 62.4242 27.4208 60.5587C26.4465 59.7238 25.0033 58.2027 25 58.0073C24.9991 57.9525 25.4449 58.2113 25.9906 58.5824C29.4823 60.9564 34.5981 61.9887 39.5344 61.3152C42.6632 60.8883 44.8603 60.0898 47.6619 58.3615C48.2846 57.9774 48.0524 58.3421 46.9223 59.5234C43.8573 62.727 39.2922 64.4117 35.0253 63.9138Z"
     fill="#549956"
     id="path4" />
  <path
     d="M23.3725 45.8619C21.7047 45.4077 20.3277 44.2354 19.5254 42.5869C19.0662 41.6433 18.9982 41.2553 19 39.5868C19.0025 37.3514 19.4102 36.2066 20.7006 34.8124C21.9703 33.4405 23.0416 32.9894 25.0047 33.0002C27.6936 33.0149 29.2614 34.0248 30.3677 36.4549C30.9345 37.6999 31.013 38.077 30.9985 39.4872C30.9856 40.7345 30.8697 41.3593 30.4843 42.2585C29.8721 43.6865 28.7593 44.9411 27.6232 45.4841C26.6261 45.9607 24.4464 46.1544 23.3725 45.8619Z"
     fill="#549956"
     id="path6" />
  <path
     d="M46.4732 45.8711C44.7772 45.4794 43.1905 44.0674 42.438 42.2801C41.855 40.8953 41.8538 38.2808 42.4357 36.8991C43.007 35.5426 44.1459 34.2295 45.3229 33.5703C46.1492 33.1076 46.5848 33.0141 47.9718 33.0013C49.4098 32.9881 49.7801 33.0655 50.7413 33.5802C56.1123 36.4558 54.4746 45.6373 48.5284 45.9865C47.8463 46.0265 46.9215 45.9746 46.4732 45.8711Z"
     fill="#549956"
     id="path8" />
</svg>
