<?xml version="1.0" encoding="UTF-8" standalone="no"?>
<svg
   width="73"
   height="78"
   viewBox="0 0 73 78"
   fill="none"
   version="1.1"
   id="svg17"
   sodipodi:docname="icone chat blanc 1 (1).svg"
   inkscape:version="1.1.2 (0a00cf5339, 2022-02-04, custom)"
   xmlns:inkscape="http://www.inkscape.org/namespaces/inkscape"
   xmlns:sodipodi="http://sodipodi.sourceforge.net/DTD/sodipodi-0.dtd"
   xmlns="http://www.w3.org/2000/svg"
   xmlns:svg="http://www.w3.org/2000/svg">
  <sodipodi:namedview
     id="namedview19"
     pagecolor="#ffffff"
     bordercolor="#666666"
     borderopacity="1.0"
     inkscape:pageshadow="2"
     inkscape:pageopacity="0.0"
     inkscape:pagecheckerboard="0"
     showgrid="false"
     width="74px"
     scale-x="1"
     inkscape:zoom="5.6568543"
     inkscape:cx="22.362252"
     inkscape:cy="51.795572"
     inkscape:window-width="1600"
     inkscape:window-height="837"
     inkscape:window-x="-8"
     inkscape:window-y="-8"
     inkscape:window-maximized="1"
     inkscape:current-layer="g10" />
  <g
     clip-path="url(#clip0_5_3)"
     id="g10"
     style="fill:#549956;fill-opacity:1;stroke-width:2.4;stroke-miterlimit:4;stroke-dasharray:none">
    <path
       d="M 1.46158,77.488 C 1.07813,77.263 0.798815,76.9775 0.5645,76.5711 0.246328,76.0192 0.224576,75.9065 0.229363,74.8338 0.234998,73.5714 -0.022968,74.4973 3.72029,62.3041 4.28931,60.4507 4.68195,58.9706 4.68974,58.6498 4.70057,58.2036 4.55451,57.7902 3.84313,56.2535 2.75085,53.8939 2.19692,52.3903 1.57865,50.1068 0.449718,45.9372 0.224243,44.0383 0.224243,38.7005 c 0,-3.8313 0.021826,-4.3219 0.252639,-5.6785 C 1.29196,28.2315 2.46213,24.4715 4.30224,20.7303 6.10067,17.0738 8.89868,13.1475 11.5691,10.533 17.4327,4.79221 24.1221,1.46234 32.0074,0.359143 33.744,0.116195 39.3247,0.115682 41.031,0.358315 50.9915,1.77466 59.7438,7.18565 65.6119,15.5551 c 3.3974,4.8456 5.5594,10.0655 6.6473,16.0494 0.5521,3.0362 0.6027,3.7861 0.5416,8.0135 -0.064,4.4323 -0.2024,5.6581 -1.0339,9.1603 -2.1784,9.1754 -7.5764,17.3314 -14.9144,22.5351 -3.7851,2.6841 -7.1952,4.2967 -11.5636,5.4682 -3.4273,0.919 -3.974,0.9793 -8.845,0.9743 C 32.13,77.7515 32.0493,77.747 30.5007,77.4204 28.4981,76.9981 26.5708,76.4784 25.0061,75.9388 23.6918,75.4855 20.5542,74.0743 19.6236,73.518 18.4465,72.8143 18.4712,72.8139 16.1804,73.5686 13.729,74.3762 7.7396,76.4029 5.36321,77.2289 3.2522,77.9627 2.37049,78.0212 1.46158,77.488 Z M 40.7273,71.6453 c 7.041,-0.9799 13.7969,-4.7801 18.63,-10.4794 3.5275,-4.1597 6.1151,-9.4724 7.2361,-14.8571 0.5086,-2.443 0.6316,-3.923 0.6316,-7.5995 0,-2.895 -0.0345,-3.6114 -0.2352,-4.8763 -0.7716,-4.8646 -2.3774,-9.2257 -4.8693,-13.2247 -2.2353,-3.5872 -5.3986,-6.8957 -8.9988,-9.4118 -9.1622,-6.4032 -21.819,-6.85422 -31.4508,-1.1208 -4.636,2.7597 -8.0171,6.1352 -11.0867,11.0686 -2.37294,3.8138 -3.73094,7.5753 -4.54299,12.5838 -0.24339,1.5012 -0.34614,7.6243 -0.15742,9.3807 0.3867,3.5989 1.69848,8.0856 3.28259,11.2276 1.13132,2.2439 1.42232,2.8876 1.49652,3.3102 0.1026,0.5846 -0.0923,1.3464 -1.8951,7.4057 -0.84184,2.8295 -1.51582,5.1603 -1.49773,5.1796 0.01809,0.0194 2.19951,-0.7002 4.84763,-1.599 7.501512,-3.389559 9.646852,0.09822 15.7025,1.9873 1.3568,0.4189 3.775,0.9855 4.8111,1.1273 0.185,0.0254 1.7846,0.0542 3.5546,0.064 2.3322,0.013 3.5824,-0.0327 4.5414,-0.1662 z"
       fill="#549956"
       id="path2"
       style="fill:#549956;fill-opacity:1;stroke:none;stroke-width:2.4;stroke-miterlimit:4;stroke-dasharray:none;stroke-opacity:1"
       sodipodi:nodetypes="ccscscsscccccscccccccccscccssscscccssscscccccc" />
    <path
       d="m 34.583358,61.880868 c -2.7888,-0.3255 -5.4274,-1.4896 -7.6045,-3.3551 -0.9743,-0.8349 -2.4175,-2.356 -2.4208,-2.5514 -9e-4,-0.0548 0.4449,0.204 0.9906,0.5751 3.4917,2.374 8.6075,3.4063 13.5438,2.7328 3.1288,-0.4269 5.3259,-1.2254 8.1275,-2.9537 0.6227,-0.3841 0.3905,-0.0194 -0.7396,1.1619 -3.065,3.2036 -7.6301,4.8883 -11.897,4.3904 z"
       fill="#549956"
       id="path4"
       style="fill:#549956;fill-opacity:1;stroke:none;stroke-width:2.4;stroke-miterlimit:4;stroke-dasharray:none;stroke-opacity:1" />
    <path
       d="M 23.3725,45.8619 C 21.7047,45.4077 20.3277,44.2354 19.5254,42.5869 19.0662,41.6433 18.9982,41.2553 19,39.5868 c 0.0025,-2.2354 0.4102,-3.3802 1.7006,-4.7744 1.2697,-1.3719 2.341,-1.823 4.3041,-1.8122 2.6889,0.0147 4.2567,1.0246 5.363,3.4547 0.5668,1.245 0.6453,1.6221 0.6308,3.0323 -0.0129,1.2473 -0.1288,1.8721 -0.5142,2.7713 -0.6122,1.428 -1.725,2.6826 -2.8611,3.2256 -0.9971,0.4766 -3.1768,0.6703 -4.2507,0.3778 z"
       fill="#549956"
       id="path6"
       style="fill:#549956;fill-opacity:1;stroke-width:5.5;stroke-miterlimit:4;stroke-dasharray:none;stroke:none;stroke-opacity:1" />
    <path
       d="m 46.4732,45.8711 c -1.696,-0.3917 -3.2827,-1.8037 -4.0352,-3.591 -0.583,-1.3848 -0.5842,-3.9993 -0.0023,-5.381 0.5713,-1.3565 1.7102,-2.6696 2.8872,-3.3288 0.8263,-0.4627 1.2619,-0.5562 2.6489,-0.569 1.438,-0.0132 1.8083,0.0642 2.7695,0.5789 5.371,2.8756 3.7333,12.0571 -2.2129,12.4063 -0.6821,0.04 -1.6069,-0.0119 -2.0552,-0.1154 z"
       fill="#549956"
       id="path8"
       style="fill:#549956;fill-opacity:1;stroke-width:5.5;stroke-miterlimit:4;stroke-dasharray:none;stroke:none;stroke-opacity:1" />
    <path
       style="fill:#549956;fill-opacity:1;stroke:none;stroke-width:4.118;stroke-miterlimit:4;stroke-dasharray:none;stroke-dashoffset:0;stroke-opacity:1"
       d="m 30.847533,72.537273 c -4.982932,-1.012203 -7.802232,-3.060895 -12.280088,-4.743411 -0.239685,0 -12.2215415,3.005204 -12.2215415,3.005204 0,0 1.0765791,-4.676908 2.8555821,-11.291088 L 9.6354839,57.85122 8.4130721,55.265337 C 6.9771166,52.227725 6.2598258,50.254454 5.5774573,47.464543 4.7532047,44.094528 4.6234539,42.622723 4.739977,37.964733 4.827887,34.450566 4.9158527,33.432228 5.2784239,31.731417 5.8162209,29.208626 6.8147685,26.094123 7.7023582,24.171086 9.5168869,20.239761 12.945824,15.528161 15.847656,12.978875 21.918887,7.6452436 28.687264,5.0307836 36.440184,5.0244803 c 6.636521,-0.0054 12.458307,1.8318913 17.796727,5.6164357 2.017338,1.430143 6.324464,5.771538 7.730703,7.792212 2.948907,4.237385 4.927383,8.959589 5.941947,14.182172 0.268865,1.384019 0.325168,2.518824 0.320128,6.45235 -0.0071,5.504932 -0.223076,7.027497 -1.583712,11.162341 -3.567458,10.841163 -12.026209,19.061653 -22.434237,21.802323 -2.784632,0.733257 -4.254854,0.889923 -8.20628,0.874459 -2.773227,-0.01085 -3.819064,-0.08577 -5.157927,-0.3695 z m 11.313709,-2.273278 c 7.766602,-1.631378 14.75583,-6.610823 19.108802,-13.613978 1.898276,-3.053984 3.409199,-6.819433 4.253231,-10.599688 0.383411,-1.717223 0.414432,-2.246491 0.414432,-7.071068 0,-4.763653 -0.03425,-5.365673 -0.395762,-6.95714 C 63.59922,23.469855 59.055014,16.626259 52.187805,11.910723 47.148135,8.4501111 40.4119,6.7286787 34.162096,7.3042866 30.067276,7.6814203 27.310564,8.4495072 23.864854,10.173349 15.608951,14.303665 9.6002836,22.287873 7.4747888,31.95217 c -0.3631612,1.651239 -0.3987865,2.275316 -0.4011392,7.027091 -0.00239,4.833554 0.027772,5.350548 0.4125001,7.069654 0.6338703,2.832371 1.474682,5.211366 2.8895433,8.175681 1.713321,3.589626 1.713626,3.560902 -0.102763,9.669686 -0.7354778,2.473519 -1.3149377,4.519605 -1.2876883,4.546855 0.027249,0.02725 2.0737423,-0.623155 4.5477623,-1.445342 2.474021,-0.822188 4.800417,-1.496043 5.16977,-1.497457 0.501017,-0.0019 1.421015,0.385136 3.622896,1.5242 3.505183,1.81328 4.512085,2.212544 7.549591,2.993616 2.283027,0.587063 2.325339,0.59097 6.45235,0.595768 3.485182,0.004 4.424728,-0.05199 5.833631,-0.347927 z"
       id="path22153"
       sodipodi:nodetypes="cccccsssssssssscsssccssscsssssssssscsscc" />
    <path
       style="fill:#549956;fill-opacity:1;stroke:none;stroke-width:0.51475;stroke-miterlimit:4;stroke-dasharray:none;stroke-dashoffset:0;stroke-opacity:1"
       d="m 32.75,74.803861 c -3.199608,-0.250985 -5.92236,-1.12776 -11.604464,-3.736841 -1.226205,-0.563044 -2.407455,-1.051924 -2.625,-1.086401 -0.263129,-0.0417 -2.81553,0.54311 -7.624671,1.746983 C 4.1347061,73.420125 3.6710183,73.519884 3.7329816,73.268636 3.7694202,73.120886 4.1959976,71.3125 4.6809312,69.25 5.1658649,67.1875 6.0064721,63.81299 6.5489472,61.75109 L 7.5352657,58.002179 7.127008,57.18859 C 4.4201261,51.794225 2.9007866,46.395735 2.7292346,41.5625 2.6408467,39.072297 2.8666598,33.881266 3.129759,32.355172 3.6014488,29.61916 4.9817811,25.253696 6.1273306,22.875 8.3801722,18.197047 12.193024,13.304386 15.8697,10.373566 19.892201,7.1670749 24.164226,5.031856 28.75,3.9358089 c 2.841824,-0.6792251 4.065516,-0.806947 7.75,-0.8089 3.854505,-0.00204 5.113009,0.1411461 8.27341,0.9413261 3.728621,0.9440479 7.702116,2.8134395 10.699207,5.0336061 2.805134,2.0779699 6.958028,6.4081379 8.704023,9.0755709 2.703459,4.130195 4.496427,8.486855 5.608997,13.629078 L 70.125,33.375 l -0.0037,5.5 c -0.0041,6.017141 -0.04727,6.518651 -0.808566,9.386584 -1.099293,4.141223 -2.85478,8.097373 -5.08955,11.469762 -5.700655,8.602601 -15.070859,14.354791 -24.563263,15.078921 -1.87405,0.142962 -5.04318,0.140024 -6.909902,-0.0064 z m 9.75,-6.649404 c 3.698805,-0.963803 6.883236,-2.473738 9.764881,-4.630133 5.563201,-4.163059 9.135095,-9.62488 11.08728,-16.953679 l 0.518265,-1.945645 0.0023,-5.5625 0.0023,-5.5625 -0.348629,-1.375 C 61.813012,25.367475 59.003777,20.477914 54.380164,16.205739 49.96932,12.130162 44.896864,9.8808901 38.8125,9.302591 35.24052,8.963086 30.748989,9.5407601 27.471497,10.761204 18.780669,13.997418 12.126534,21.674307 9.6926406,31.272705 c -0.5694197,2.245586 -0.6573114,3.492617 -0.6036032,8.564086 0.047018,4.439739 0.055607,4.570445 0.3958286,6.02388 0.4790806,2.046643 1.188687,4.137575 2.094333,6.171178 0.420839,0.944982 0.988178,2.223268 1.260752,2.840635 1.109985,2.514056 1.073639,3.58098 -0.281967,8.276936 -0.341266,1.18218 -0.620484,2.174251 -0.620484,2.204602 0,0.03035 0.604687,-0.13729 1.34375,-0.372535 4.703412,-1.497111 5.496214,-1.635248 6.792931,-1.183597 0.3717,0.129465 1.981063,0.883332 3.576361,1.675264 2.983009,1.480811 4.494493,2.057543 7.099458,2.708923 l 1.5,0.37508 4.5,-0.03849 c 4.382596,-0.03749 4.532612,-0.04699 5.75,-0.364208 z"
       id="path23641" />
    <path
       style="fill:#549956;fill-opacity:1;stroke:none;stroke-width:0.6875;stroke-miterlimit:4;stroke-dasharray:none;stroke-dashoffset:0;stroke-opacity:1"
       d="m 22.707718,48.442477 c -1.76097,-0.478577 -3.598419,-1.74381 -4.687928,-3.228018 -0.66325,-0.903527 -1.328035,-2.320398 -1.525182,-3.25065 -0.223276,-1.053547 -0.225799,-3.296844 -0.0051,-4.526309 0.565283,-3.148921 3.005871,-5.921878 6.010482,-6.829013 1.042035,-0.314605 3.79228,-0.32096 4.9375,-0.01141 2.545335,0.687999 4.498006,2.547911 5.606765,5.340422 0.554525,1.396623 0.690741,2.293548 0.604065,3.977519 -0.09055,1.759184 -0.274339,2.476224 -1.021651,3.98585 -0.669944,1.353335 -2.100345,2.961082 -3.24946,3.652341 -1.657496,0.997077 -4.753745,1.409911 -6.669501,0.889267 z m 3.254879,-5.269766 c 0.517029,-0.10911 0.773508,-0.254747 1.168656,-0.663606 0.79202,-0.819501 1.090285,-1.56535 1.153349,-2.884105 0.04833,-1.010576 0.02028,-1.200629 -0.275753,-1.868579 -0.657958,-1.484568 -1.175056,-1.904648 -2.496417,-2.028039 -1.291365,-0.120589 -1.892375,0.02591 -2.534522,0.617825 -0.979604,0.902968 -1.202374,1.425182 -1.265923,2.967557 -0.06319,1.533759 0.04119,1.97138 0.6651,2.788495 0.804253,1.053297 1.989715,1.407217 3.58551,1.070452 z"
       id="path24195" />
    <path
       style="fill:#549956;fill-opacity:1;stroke:none;stroke-width:0.6875;stroke-miterlimit:4;stroke-dasharray:none;stroke-dashoffset:0;stroke-opacity:1"
       d="M 46.209244,48.547547 C 43.303599,48.064287 40.41123,45.299909 39.62012,42.25 c -0.311921,-1.202527 -0.369339,-3.186349 -0.132053,-4.5625 0.537392,-3.116631 2.915474,-6.000476 5.784384,-7.014587 1.035705,-0.366104 3.645485,-0.4654 4.838389,-0.184088 1.615935,0.381071 3.453324,1.569117 4.513569,2.918449 2.064448,2.627341 2.592253,6.046721 1.447152,9.375377 -0.497709,1.446775 -1.040304,2.30469 -2.198111,3.475504 -0.790023,0.798897 -1.225621,1.123267 -2.0625,1.535845 -1.634587,0.805845 -3.653957,1.077492 -5.601706,0.753547 z m 3.215161,-5.564433 c 2.04694,-1.020033 2.52911,-4.648782 0.850442,-6.400318 -0.652265,-0.680578 -1.198133,-0.895296 -2.276075,-0.895296 -1.097613,0 -1.406455,0.129069 -2.144529,0.896224 -0.923966,0.960372 -1.104945,1.460952 -1.099542,3.041276 0.0052,1.531855 0.101421,1.8192 0.90862,2.714505 0.624423,0.692577 1.269211,0.96686 2.280886,0.97025 0.638206,0.0021 0.96525,-0.07003 1.480198,-0.326641 z"
       id="path24234" />
    <path
       style="fill:#549956;fill-opacity:1;stroke:none;stroke-width:0.486136;stroke-miterlimit:4;stroke-dasharray:none;stroke-dashoffset:0;stroke-opacity:1"
       d="m 34.793176,63.058099 c -3.50536,-0.33817 -6.674894,-1.843208 -9.358933,-4.444044 -1.948285,-1.88789 -2.22555,-2.342756 -1.890177,-3.100922 0.196502,-0.444226 0.540714,-0.668163 1.027026,-0.668163 0.371755,0 0.738428,0.175717 1.770543,0.848484 2.034208,1.325964 4.743378,2.219877 7.632139,2.518288 1.411669,0.145826 4.266652,0.05759 5.624206,-0.173827 2.510448,-0.427942 4.294842,-1.080906 6.511639,-2.382806 0.878875,-0.516155 1.307497,-0.667532 1.666706,-0.588636 0.398457,0.08752 0.777025,0.451315 0.884336,0.849835 0.08246,0.306252 0.06709,0.410321 -0.119826,0.81114 -0.405364,0.869247 -2.306212,2.705437 -3.860525,3.729208 -2.269589,1.494897 -4.83292,2.387737 -7.486357,2.607591 -1.161983,0.09628 -1.343893,0.09581 -2.400777,-0.0061 z m 2.948648,-2.368965 c 0.206407,-0.03951 -0.492543,-0.06734 -1.679378,-0.06688 -1.118113,4.33e-4 -1.893721,0.02794 -1.723573,0.06112 0.429811,0.08384 2.97253,0.08814 3.402951,0.0058 z"
       id="path24480" />
  </g>
  <defs
     id="defs15">
    <clipPath
       id="clip0_5_3">
      <rect
         width="73"
         height="78"
         fill="#ffffff"
         id="rect12"
         x="0"
         y="0" />
    </clipPath>
  </defs>
</svg>
