<?xml version="1.0" encoding="UTF-8" standalone="no"?>
<svg
   width="3.72222in"
   height="3.61111in"
   viewBox="0 0 268 260"
   version="1.1"
   id="svg3"
   sodipodi:docname="logo envoi blanc.svg"
   inkscape:version="1.1.2 (0a00cf5339, 2022-02-04, custom)"
   xmlns:inkscape="http://www.inkscape.org/namespaces/inkscape"
   xmlns:sodipodi="http://sodipodi.sourceforge.net/DTD/sodipodi-0.dtd"
   xmlns="http://www.w3.org/2000/svg"
   xmlns:svg="http://www.w3.org/2000/svg">
  <defs
     id="defs7" />
  <sodipodi:namedview
     id="namedview5"
     pagecolor="#d5ffff"
     bordercolor="#666666"
     borderopacity="1.0"
     inkscape:pageshadow="2"
     inkscape:pageopacity="0"
     inkscape:pagecheckerboard="0"
     inkscape:document-units="in"
     showgrid="false"
     inkscape:zoom="0.93894263"
     inkscape:cx="176.2621"
     inkscape:cy="132.06345"
     inkscape:window-width="1600"
     inkscape:window-height="837"
     inkscape:window-x="-8"
     inkscape:window-y="-8"
     inkscape:window-maximized="1"
     inkscape:current-layer="svg3" />
  <path
     style="fill:#ffffff;stroke-width:1.12968"
     d="m 141.63103,1.4906023 c 3.77974,1.01622 10.11638,6.7788 38.75578,35.2447297 18.83048,18.71642 35.34354,35.807939 36.69568,37.981169 3.35172,5.38706 3.41444,15.7492 0.13335,22.03206 -3.51504,6.730859 -10.30553,11.047689 -18.28642,11.625019 -9.17068,0.6634 -12.30808,-1.06902 -27.36312,-15.109389 l -12.99078,-12.11523 -0.56482,59.453429 -0.56481,59.45343 -2.57293,2.57254 c -2.33702,2.33665 -3.81772,2.60948 -16.14899,2.97548 -16.24787,0.48224 -23.0564,-0.38485 -25.98001,-3.30866 -2.09538,-2.09553 -2.17783,-4.42345 -2.17783,-61.48786 0,-32.62043 -0.32108,-59.309869 -0.7135,-59.309869 -0.39242,0 -5.97639,5.06944 -12.40885,11.26543 -13.46809,12.972999 -18.25955,15.847649 -26.41481,15.847649 -16.89095,0 -27.37105,-16.951229 -20.25491,-32.761629 2.99316,-6.65007 66.00806,-69.7542087 72.73747,-72.8404687 5.5557,-2.54797004 12.21362,-3.10569004 18.1195,-1.51783 z"
     id="path1540" />
  <path
     style="fill:#ffffff;stroke-width:1.50618"
     d="M 38.365704,343.64446 C 21.494881,339.96294 10.806513,330.60792 4.8658305,314.3236 2.1974732,307.00922 1.7228786,302.11346 1.6259462,280.90197 1.5034206,254.09 2.707734,247.68747 8.9823697,241.79276 c 10.5014343,-9.86559 29.9714043,-3.89681 33.9448013,10.40623 0.818535,2.94648 1.492025,15.35449 1.496644,27.57335 l 0.0084,22.21611 H 179.23504 314.03786 l 0.006,-25.22846 c 0.006,-28.28734 1.20831,-32.45352 10.79338,-37.41014 10.61493,-5.4892 21.27511,-2.17874 27.60849,8.57367 2.71951,4.617 3.01236,7.82303 3.01236,32.97845 0,27.42486 -0.0673,28.01004 -4.27136,37.1078 -5.26207,11.38752 -11.11823,17.20302 -22.83983,22.68118 l -9.03745,4.22354 -136.309,0.2734 c -101.692133,0.20397 -138.423403,-0.188 -144.634776,-1.54343 z"
     id="path1579"
     transform="scale(0.75000032)" />
</svg>
