<svg width="66" height="66" viewBox="0 0 66 66" fill="none" xmlns="http://www.w3.org/2000/svg">
<path d="M26.4 0C22.9331 -1.73345e-07 19.5002 0.682856 16.2972 2.00958C13.0942 3.3363 10.1838 5.28091 7.73238 7.73238C5.28091 10.1838 3.3363 13.0942 2.00958 16.2972C0.682856 19.5002 -1.73345e-07 22.9331 0 26.4C-1.73345e-07 29.8669 0.682856 33.2999 2.00958 36.5028C3.3363 39.7058 5.28091 42.6162 7.73238 45.0676C10.1838 47.5191 13.0942 49.4637 16.2972 50.7904C19.5002 52.1171 22.9331 52.8 26.4 52.8C32.2693 52.7973 37.9704 50.8387 42.6022 47.2338L61.1802 65.8118L65.8466 61.1441L47.2648 42.5623C50.8502 37.9372 52.7972 32.252 52.8 26.4C52.8 22.9331 52.1171 19.5002 50.7904 16.2972C49.4637 13.0942 47.5191 10.1838 45.0676 7.73238C42.6161 5.28091 39.7058 3.3363 36.5028 2.00958C33.2998 0.682856 29.8669 -1.73345e-07 26.4 0V0ZM26.4 6.6C29.0002 6.6 31.5749 7.11214 33.9771 8.10719C36.3794 9.10223 38.5621 10.5607 40.4007 12.3993C42.2393 14.2379 43.6978 16.4206 44.6928 18.8229C45.6879 21.2251 46.2 23.7998 46.2 26.4C46.2 29.0002 45.6879 31.5749 44.6928 33.9771C43.6978 36.3794 42.2393 38.5621 40.4007 40.4007C38.5621 42.2393 36.3794 43.6978 33.9771 44.6928C31.5749 45.6879 29.0002 46.2 26.4 46.2C21.1487 46.2 16.1125 44.1139 12.3993 40.4007C8.68606 36.6875 6.6 31.6513 6.6 26.4C6.6 21.1487 8.68606 16.1125 12.3993 12.3993C16.1125 8.68607 21.1487 6.6 26.4 6.6Z" fill="#549956"/>
</svg>
