<?xml version="1.0" encoding="UTF-8" standalone="no"?>
<svg
   width="4.92in"
   height="4.92in"
   viewBox="0 0 1476 1476"
   version="1.1"
   id="svg3"
   sodipodi:docname="profil.svg"
   inkscape:version="1.2.1 (9c6d41e410, 2022-07-14)"
   xmlns:inkscape="http://www.inkscape.org/namespaces/inkscape"
   xmlns:sodipodi="http://sodipodi.sourceforge.net/DTD/sodipodi-0.dtd"
   xmlns="http://www.w3.org/2000/svg"
   xmlns:svg="http://www.w3.org/2000/svg">
  <defs
     id="defs7" />
  <sodipodi:namedview
     id="namedview5"
     pagecolor="#ffffff"
     bordercolor="#000000"
     borderopacity="0.25"
     inkscape:showpageshadow="2"
     inkscape:pageopacity="0.0"
     inkscape:pagecheckerboard="0"
     inkscape:deskcolor="#d1d1d1"
     inkscape:document-units="in"
     showgrid="false"
     inkscape:zoom="1.2530665"
     inkscape:cx="219.46162"
     inkscape:cy="284.90108"
     inkscape:window-width="1920"
     inkscape:window-height="1017"
     inkscape:window-x="1592"
     inkscape:window-y="-8"
     inkscape:window-maximized="1"
     inkscape:current-layer="svg3" />
  <path
     style="fill:#000000;fill-opacity:1;stroke-width:0.564301"
     d="M 212.5464,470.31618 C 194.1662,468.41779 182.34325,466.02047 165.90452,460.8587 141.21736,453.10692 120.30403,442.71891 99.599141,427.92368 78.193068,412.6274 63.342718,398.08097 47.46029,376.85187 35.688656,361.11742 26.370524,344.82515 18.632623,326.44818 11.498219,309.50446 5.8184385,288.55459 2.8747271,268.32517 0.12970871,249.46117 0.1291425,222.88333 2.8733566,203.99484 8.3475637,166.31575 20.83978,133.85547 41.529467,103.54925 75.802288,53.346463 128.98004,17.791744 187.63011,5.8661555 207.86089,1.7525383 214.09649,1.146091 236.16,1.1463507 c 21.5293,2.534e-4 25.97627,0.3940855 45.08368,3.9926948 31.94337,6.0160775 64.71328,19.9995855 90.75287,38.7258715 23.58557,16.961486 40.30527,33.735776 56.99741,57.183493 9.46299,13.29281 17.69919,28.25083 24.71335,44.8827 7.10296,16.84242 12.79602,37.8464 15.73797,58.06373 2.8748,19.75586 2.65849,47.46998 -0.52854,67.71613 -2.85389,18.12984 -8.35432,38.09917 -14.76619,53.6086 -15.35428,37.13995 -40.68717,71.00064 -70.99011,94.88745 -23.3609,18.41463 -48.75535,31.86108 -76.74495,40.63671 -12.28796,3.85266 -16.53828,4.90487 -27.93291,6.91507 -21.12122,3.72613 -45.47498,4.6707 -65.93618,2.55738 z m 38.31371,-12.96652 c 18.92918,-1.4482 37.17644,-5.0578 54.70893,-10.82232 16.11228,-5.29757 26.96091,-10.13863 41.56768,-18.54906 10.77546,-6.2044 25.55224,-16.68166 32.37413,-22.95441 l 3.06877,-2.82174 -2.97683,-8.9915 c -8.63429,-26.07985 -24.29343,-47.81529 -46.73517,-64.87007 -10.54911,-8.01687 -20.43117,-13.49987 -32.90344,-18.25624 -10.28143,-3.92089 -13.80704,-4.85406 -25.53171,-6.75782 l -10.5164,-1.70757 h -27.74358 -27.74358 l -10.54048,1.74111 c -15.88033,2.62315 -28.65144,6.95617 -41.42565,14.05501 -32.33852,17.97103 -54.5197,45.23006 -65.300657,80.24968 -1.57234,5.10741 -1.851043,4.52205 4.769061,10.01656 30.442866,25.26678 69.167846,42.19586 109.756566,47.98138 15.46802,2.20481 30.88058,2.7804 45.17236,1.68699 z M 81.801599,382.85181 c 6.066676,-15.75757 15.673767,-31.67897 27.250921,-45.16173 16.57756,-19.30625 40.12561,-34.71597 65.34062,-42.75859 5.88369,-1.87666 11.96626,-3.75077 13.51683,-4.16466 l 2.81921,-0.75254 -6.00543,-4.08784 c -20.54824,-13.98699 -35.21547,-34.27631 -40.28332,-55.72433 -7.61862,-32.24331 -0.44271,-62.3493 20.60459,-86.44497 14.03574,-16.06859 32.67032,-26.66367 54.07746,-30.74685 9.40467,-1.79384 24.59497,-1.77459 34.24871,0.0434 21.64354,4.07592 42.11551,16.06582 55.553,32.53598 13.83629,16.95895 20.93307,35.64738 21.85746,57.55871 0.35182,8.3392 -0.14442,13.7942 -2.15602,23.70064 -1.51408,7.4563 -3.35017,12.771 -7.04571,20.39435 -7.55672,15.58836 -18.71539,28.2901 -33.98366,38.68307 l -6.00543,4.08784 2.81921,0.74144 c 11.17956,2.94019 26.32673,8.41503 33.79715,12.21574 8.87035,4.51297 19.96148,11.64393 27.42722,17.63415 6.30092,5.0556 16.87323,15.63221 21.6342,21.64299 9.13945,11.53867 19.00395,28.81623 23.51942,41.19398 1.30206,3.5692 2.56724,6.70355 2.8115,6.96522 0.82664,0.88551 3.32831,-1.4031 9.91813,-9.07342 19.78111,-23.02451 33.91345,-47.90326 43.0384,-75.76535 3.92657,-11.98937 4.87842,-15.85363 7.64494,-31.03656 2.83663,-15.56769 3.34587,-21.37976 3.38684,-38.65463 0.0427,-18.01115 -0.71077,-25.42274 -4.49653,-44.22997 -5.24089,-26.03613 -15.58416,-51.79173 -29.97923,-74.65076 C 410.22003,96.524863 390.15241,74.844833 369.69069,59.283401 344.0829,39.808307 312.60151,25.634904 280.73979,19.236346 262.10068,15.493187 254.53116,14.725463 236.16,14.714922 c -18.33809,-0.01052 -25.76249,0.742482 -44.57978,4.521424 -42.25228,8.485218 -80.68873,29.083996 -111.494074,59.751664 -20.651072,20.558775 -35.295673,42.08541 -47.80454,70.26963 -6.536836,14.7284 -12.814646,37.44203 -15.658331,56.65313 -4.647597,31.3978 -1.44085,67.07969 8.880263,98.81182 9.340945,28.71861 23.464411,53.64715 43.546447,76.86139 6.569701,7.59438 8.299374,9.26202 9.326204,8.99173 0.276457,-0.0728 1.817891,-3.54852 3.42541,-7.7239 z M 250.26753,286.05267 c 14.5738,-2.73071 26.59043,-8.33409 38.18493,-17.80571 10.479,-8.56036 20.30611,-22.95507 24.42707,-35.78065 2.88927,-8.99217 4.19222,-17.09378 4.17057,-25.93211 -0.0335,-13.6744 -2.71787,-25.00212 -8.72806,-36.83114 -11.71234,-23.05174 -32.78919,-38.74638 -57.76876,-43.01685 -9.00656,-1.53975 -20.44094,-1.52814 -29.10749,0.0296 -8.57177,1.54066 -15.24624,3.83598 -23.04019,7.9234 -32.04368,16.80486 -48.91282,52.92938 -41.47837,88.82406 1.86523,9.00561 6.42362,19.83114 11.57299,27.48419 12.0937,17.9738 28.48601,29.21431 50.16645,34.40007 9.22746,2.20712 22.05708,2.49342 31.60086,0.70518 z"
     id="path2646"
     transform="scale(3.125)" />
</svg>
